<?xml version="1.0" encoding="UTF-8"?>
<!DOCTYPE svg PUBLIC "-//W3C//DTD SVG 1.1//EN" "http://www.w3.org/Graphics/SVG/1.1/DTD/svg11.dtd">
<!-- Creator: CorelDRAW -->
<svg xmlns="http://www.w3.org/2000/svg" xml:space="preserve" width="512px" height="512px" version="1.1" style="shape-rendering:geometricPrecision; text-rendering:geometricPrecision; image-rendering:optimizeQuality; fill-rule:evenodd; clip-rule:evenodd"
viewBox="0 0 512 512"
 xmlns:xlink="http://www.w3.org/1999/xlink">
 <defs>
  <style type="text/css">
   <![CDATA[
    .fil1 {fill:#00CCFF}
    .fil0 {fill:#1B74B9}
    .fil2 {fill:white}
   ]]>
  </style>
 </defs>
 <g id="Layer_x0020_1">
  <metadata id="CorelCorpID_0Corel-Layer"/>
  <path class="fil0" d="M256 229c104,0 189,84 189,189 0,25 -6,42 -20,51 -40,26 -127,-41 -169,-41 -35,0 -101,47 -146,47 -31,0 -43,-22 -43,-57 0,-105 85,-189 189,-189zm-227 3c-32,-31 -38,-76 -15,-99 24,-23 67,-17 99,15 44,44 36,113 -22,113 -20,0 -44,-10 -62,-29zm-5 -88c-17,17 -10,53 15,78 25,26 61,33 79,15 17,-18 10,-53 -15,-79 -26,-25 -61,-32 -79,-14zm375 3c50,-49 122,-31 112,34 -6,41 -49,80 -91,80 -54,0 -69,-65 -21,-114zm63 -13c-53,0 -98,72 -67,102 29,29 94,-8 102,-57 4,-27 -10,-45 -35,-45zm-206 64c-33,0 -60,-36 -60,-80 0,-45 27,-81 60,-81 33,0 60,36 60,81 0,44 -27,80 -60,80zm0 -146c-25,0 -45,30 -45,66 0,36 20,66 45,66 25,0 45,-30 45,-66 0,-37 -20,-66 -45,-66zm0 192c-96,0 -175,78 -175,174 0,20 5,33 13,39 31,20 119,-44 161,-44 20,0 45,11 73,23 33,15 71,32 89,20 9,-6 13,-18 13,-38 0,-96 -78,-174 -174,-174z"/>
  <path class="fil1" d="M430 418c0,-96 -78,-174 -174,-174 -96,0 -175,78 -175,174 0,20 5,33 13,39 31,20 119,-44 161,-44 20,0 45,11 73,23 33,15 71,32 89,20 9,-6 13,-18 13,-38z"/>
  <path class="fil2" d="M256 184c25,0 45,-30 45,-66 0,-37 -20,-66 -45,-66 -25,0 -45,30 -45,66 0,36 20,66 45,66z"/>
  <path class="fil1" d="M462 134c-53,0 -98,72 -67,102 29,29 94,-8 102,-57 4,-27 -10,-45 -35,-45z"/>
  <path class="fil1" d="M118 237c17,-18 10,-53 -15,-79 -26,-25 -61,-32 -79,-14 -17,17 -10,53 15,78 25,26 61,33 79,15z"/>
 </g>
</svg>
