<?xml version="1.0" encoding="UTF-8" standalone="no"?>
<!-- Created with Inkscape (http://www.inkscape.org/) -->

<svg
   xmlns:dc="http://purl.org/dc/elements/1.1/"
   xmlns:cc="http://creativecommons.org/ns#"
   xmlns:rdf="http://www.w3.org/1999/02/22-rdf-syntax-ns#"
   xmlns:svg="http://www.w3.org/2000/svg"
   xmlns="http://www.w3.org/2000/svg"
   xmlns:sodipodi="http://sodipodi.sourceforge.net/DTD/sodipodi-0.dtd"
   xmlns:inkscape="http://www.inkscape.org/namespaces/inkscape"
   width="32"
   height="32"
   viewBox="0 0 8.4666665 8.4666669"
   version="1.1"
   id="svg8"
   inkscape:version="0.92.4 5da689c313, 2019-01-14"
   sodipodi:docname="dog_animal_chinese_zodiac.svg">
  <defs
     id="defs2" />
  <sodipodi:namedview
     id="base"
     pagecolor="#ffffff"
     bordercolor="#666666"
     borderopacity="1.0"
     inkscape:pageopacity="0.0"
     inkscape:pageshadow="2"
     inkscape:zoom="1.979899"
     inkscape:cx="-63.708541"
     inkscape:cy="-1.7305952"
     inkscape:document-units="px"
     inkscape:current-layer="layer1"
     showgrid="true"
     units="px"
     inkscape:window-width="1366"
     inkscape:window-height="712"
     inkscape:window-x="0"
     inkscape:window-y="0"
     inkscape:window-maximized="1">
    <inkscape:grid
       type="xygrid"
       id="grid7"
       empspacing="4"
       spacingy="0.13229167"
       spacingx="0.13229167" />
  </sodipodi:namedview>
  <metadata
     id="metadata5">
    <rdf:RDF>
      <cc:Work
         rdf:about="">
        <dc:format>image/svg+xml</dc:format>
        <dc:type
           rdf:resource="http://purl.org/dc/dcmitype/StillImage" />
        <dc:title />
      </cc:Work>
    </rdf:RDF>
  </metadata>
  <g
     inkscape:label="Layer 1"
     inkscape:groupmode="layer"
     id="layer1"
     transform="translate(0,-288.53332)">
    <g
       transform="translate(198.27715,-132.2525)"
       id="g6195">
      <path
         inkscape:connector-curvature="0"
         id="path22941-2-7"
         d="m -193.89633,422.14264 c -0.39554,-0.0258 -0.82039,0.0356 -1.17969,0.23047 -0.43139,0.23399 -0.78653,0.61894 -1.01367,1.04687 -0.36478,0.68725 -0.50871,1.49678 -0.47851,2.26563 0.0164,0.41697 0.15682,0.82338 0.3457,1.18164 0.1298,0.24619 0.29674,0.51473 0.56055,0.67969 0.34744,0.21729 0.79473,0.36606 1.2207,0.28124 0.15035,-0.0299 0.22247,-0.14332 0.28125,-0.21289 0.0294,-0.0348 0.0539,-0.0623 0.0703,-0.0742 0.0164,-0.0119 0.0149,-0.008 0.0195,-0.008 0.001,1.4e-4 -0.001,-0.005 0.0117,0.0117 0.013,0.0163 0.0323,0.0513 0.0527,0.0937 0.0204,0.0425 0.0429,0.0924 0.0781,0.14258 0.0352,0.0502 0.088,0.10395 0.16602,0.12695 0.16402,0.0484 0.32371,0.0114 0.46289,-0.043 0.13918,-0.0544 0.26584,-0.12847 0.375,-0.17968 0.33861,-0.15888 0.7214,-0.33635 0.97461,-0.66602 0.25536,-0.33248 0.38231,-0.75779 0.4082,-1.16406 0.0526,-0.82592 -0.15188,-1.67596 -0.50977,-2.41406 -0.17772,-0.36653 -0.44545,-0.7108 -0.78906,-0.94532 -0.31067,-0.21204 -0.68653,-0.32936 -1.05664,-0.35351 z m -0.0176,0.26367 c 0.32565,0.0213 0.66058,0.12758 0.92578,0.30859 0.29646,0.20234 0.53884,0.51104 0.69922,0.8418 0.34018,0.70159 0.53344,1.51039 0.48438,2.28125 -0.0231,0.36269 -0.13954,0.74094 -0.35352,1.01953 -0.20125,0.26204 -0.54014,0.43181 -0.87695,0.58985 -0.12458,0.0584 -0.24683,0.1279 -0.35937,0.17187 -0.11255,0.044 -0.20741,0.0598 -0.29102,0.0352 -0.003,-7.5e-4 -0.01,-0.003 -0.0254,-0.0254 -0.0158,-0.0226 -0.0354,-0.0612 -0.0566,-0.10547 -0.0213,-0.0443 -0.0445,-0.0951 -0.084,-0.14453 -0.0394,-0.0494 -0.10522,-0.0998 -0.1875,-0.10938 -0.0797,-0.009 -0.15419,0.0217 -0.20507,0.0586 -0.0509,0.0369 -0.0871,0.0793 -0.11915,0.11719 -0.0641,0.0759 -0.11467,0.11983 -0.13085,0.12305 -0.32935,0.0656 -0.72181,-0.055 -1.02735,-0.24609 -0.19459,-0.12167 -0.34445,-0.34608 -0.4668,-0.57813 -0.17553,-0.33296 -0.30015,-0.70454 -0.31445,-1.06836 -0.0286,-0.72837 0.10955,-1.49461 0.44727,-2.13086 0.20418,-0.38468 0.52701,-0.73481 0.90429,-0.93945 0.30209,-0.16386 0.68184,-0.22237 1.03711,-0.19922 z"
         style="color:#000000;font-style:normal;font-variant:normal;font-weight:normal;font-stretch:normal;font-size:medium;line-height:normal;font-family:sans-serif;font-variant-ligatures:normal;font-variant-position:normal;font-variant-caps:normal;font-variant-numeric:normal;font-variant-alternates:normal;font-feature-settings:normal;text-indent:0;text-align:start;text-decoration:none;text-decoration-line:none;text-decoration-style:solid;text-decoration-color:#000000;letter-spacing:normal;word-spacing:normal;text-transform:none;writing-mode:lr-tb;direction:ltr;text-orientation:mixed;dominant-baseline:auto;baseline-shift:baseline;text-anchor:start;white-space:normal;shape-padding:0;clip-rule:nonzero;display:inline;overflow:visible;visibility:visible;opacity:1;isolation:auto;mix-blend-mode:normal;color-interpolation:sRGB;color-interpolation-filters:linearRGB;solid-color:#000000;solid-opacity:1;vector-effect:none;fill:#000000;fill-opacity:1;fill-rule:nonzero;stroke:none;stroke-width:0.26458332px;stroke-linecap:butt;stroke-linejoin:miter;stroke-miterlimit:4;stroke-dasharray:none;stroke-dashoffset:0;stroke-opacity:1;color-rendering:auto;image-rendering:auto;shape-rendering:auto;text-rendering:auto;enable-background:accumulate" />
      <path
         inkscape:connector-curvature="0"
         id="path22943-6-86"
         d="m -194.04281,426.96881 a 0.13230489,0.13230489 0 0 0 -0.12696,0.125 l -0.0156,0.23242 a 0.13230489,0.13230489 0 1 0 0.26367,0.0176 l 0.0156,-0.23047 a 0.13230489,0.13230489 0 0 0 -0.13672,-0.14453 z"
         style="color:#000000;font-style:normal;font-variant:normal;font-weight:normal;font-stretch:normal;font-size:medium;line-height:normal;font-family:sans-serif;font-variant-ligatures:normal;font-variant-position:normal;font-variant-caps:normal;font-variant-numeric:normal;font-variant-alternates:normal;font-feature-settings:normal;text-indent:0;text-align:start;text-decoration:none;text-decoration-line:none;text-decoration-style:solid;text-decoration-color:#000000;letter-spacing:normal;word-spacing:normal;text-transform:none;writing-mode:lr-tb;direction:ltr;text-orientation:mixed;dominant-baseline:auto;baseline-shift:baseline;text-anchor:start;white-space:normal;shape-padding:0;clip-rule:nonzero;display:inline;overflow:visible;visibility:visible;opacity:1;isolation:auto;mix-blend-mode:normal;color-interpolation:sRGB;color-interpolation-filters:linearRGB;solid-color:#000000;solid-opacity:1;vector-effect:none;fill:#000000;fill-opacity:1;fill-rule:nonzero;stroke:none;stroke-width:0.26458332px;stroke-linecap:round;stroke-linejoin:round;stroke-miterlimit:4;stroke-dasharray:none;stroke-dashoffset:0;stroke-opacity:1;color-rendering:auto;image-rendering:auto;shape-rendering:auto;text-rendering:auto;enable-background:accumulate" />
      <path
         inkscape:connector-curvature="0"
         id="path22945-0-8"
         d="m -195.05844,422.14264 c -0.26445,-0.0345 -0.57552,-0.0617 -0.81445,0.0117 -0.80352,0.24695 -1.31679,0.89446 -1.73633,1.57812 -0.28193,0.45942 -0.6822,1.05317 -0.50976,1.65235 0.13317,0.46276 0.60008,0.7797 1.03906,0.88671 0.15458,0.0377 0.30656,-0.009 0.4375,-0.0508 0.13093,-0.0417 0.23437,-0.0898 0.23437,-0.0898 l -0.10937,-0.24024 c 0,0 -0.0912,0.0418 -0.20508,0.0781 -0.11386,0.0363 -0.25463,0.0547 -0.29492,0.0449 -0.35916,-0.0876 -0.75364,-0.37446 -0.84766,-0.70117 -0.12694,-0.44112 0.19815,-0.97816 0.48242,-1.44141 0.40815,-0.66509 0.87876,-1.24494 1.58789,-1.46289 0.14962,-0.046 0.45093,-0.0365 0.70118,-0.004 0.25024,0.0326 0.45312,0.0801 0.45312,0.0801 l 0.0606,-0.25782 c 0,0 -0.21406,-0.0495 -0.47852,-0.084 z"
         style="color:#000000;font-style:normal;font-variant:normal;font-weight:normal;font-stretch:normal;font-size:medium;line-height:normal;font-family:sans-serif;font-variant-ligatures:normal;font-variant-position:normal;font-variant-caps:normal;font-variant-numeric:normal;font-variant-alternates:normal;font-feature-settings:normal;text-indent:0;text-align:start;text-decoration:none;text-decoration-line:none;text-decoration-style:solid;text-decoration-color:#000000;letter-spacing:normal;word-spacing:normal;text-transform:none;writing-mode:lr-tb;direction:ltr;text-orientation:mixed;dominant-baseline:auto;baseline-shift:baseline;text-anchor:start;white-space:normal;shape-padding:0;clip-rule:nonzero;display:inline;overflow:visible;visibility:visible;opacity:1;isolation:auto;mix-blend-mode:normal;color-interpolation:sRGB;color-interpolation-filters:linearRGB;solid-color:#000000;solid-opacity:1;vector-effect:none;fill:#000000;fill-opacity:1;fill-rule:nonzero;stroke:none;stroke-width:0.26458332px;stroke-linecap:butt;stroke-linejoin:miter;stroke-miterlimit:4;stroke-dasharray:none;stroke-dashoffset:0;stroke-opacity:1;color-rendering:auto;image-rendering:auto;shape-rendering:auto;text-rendering:auto;enable-background:accumulate" />
      <path
         inkscape:connector-curvature="0"
         id="path22947-6-8"
         d="m -195.79672,423.02545 c -0.0407,-0.004 -0.0976,-0.005 -0.16797,0.006 -0.14067,0.0215 -0.3392,0.0887 -0.5957,0.25586 -0.26831,0.1786 -0.53589,0.44242 -0.71484,0.77344 -0.17896,0.33101 -0.266,0.73444 -0.15821,1.16406 v 0.002 0.002 c 0.039,0.1356 0.13644,0.2323 0.24219,0.2871 0.10575,0.0548 0.22183,0.0758 0.32812,0.084 0.21259,0.0165 0.40235,-0.0215 0.40235,-0.0215 l -0.0527,-0.25976 c 0,0 -0.16178,0.0306 -0.33007,0.0176 -0.0841,-0.007 -0.16623,-0.0244 -0.22461,-0.0547 -0.0574,-0.0298 -0.0914,-0.0651 -0.10938,-0.125 -0.0888,-0.35855 -0.0186,-0.68504 0.13477,-0.96875 0.15398,-0.28483 0.39369,-0.52312 0.6289,-0.67969 0.23004,-0.14956 0.39157,-0.20008 0.48828,-0.21484 0.0485,-0.007 0.0817,-0.006 0.0996,-0.004 0.0179,0.002 0.0117,0 0.0117,0 l 0.0918,-0.24804 c 0,0 -0.0335,-0.0113 -0.0742,-0.0156 z"
         style="color:#000000;font-style:normal;font-variant:normal;font-weight:normal;font-stretch:normal;font-size:medium;line-height:normal;font-family:sans-serif;font-variant-ligatures:normal;font-variant-position:normal;font-variant-caps:normal;font-variant-numeric:normal;font-variant-alternates:normal;font-feature-settings:normal;text-indent:0;text-align:start;text-decoration:none;text-decoration-line:none;text-decoration-style:solid;text-decoration-color:#000000;letter-spacing:normal;word-spacing:normal;text-transform:none;writing-mode:lr-tb;direction:ltr;text-orientation:mixed;dominant-baseline:auto;baseline-shift:baseline;text-anchor:start;white-space:normal;shape-padding:0;clip-rule:nonzero;display:inline;overflow:visible;visibility:visible;opacity:1;isolation:auto;mix-blend-mode:normal;color-interpolation:sRGB;color-interpolation-filters:linearRGB;solid-color:#000000;solid-opacity:1;vector-effect:none;fill:#000000;fill-opacity:1;fill-rule:nonzero;stroke:none;stroke-width:0.26458332px;stroke-linecap:butt;stroke-linejoin:miter;stroke-miterlimit:4;stroke-dasharray:none;stroke-dashoffset:0;stroke-opacity:1;color-rendering:auto;image-rendering:auto;shape-rendering:auto;text-rendering:auto;enable-background:accumulate" />
      <path
         inkscape:connector-curvature="0"
         id="path22951-1-4"
         d="m -196.46078,423.70123 a 0.06615245,0.06615245 0 0 0 -0.0117,0.004 l -0.2168,0.0762 a 0.0664148,0.0664148 0 1 0 0.0449,0.125 l 0.21679,-0.0762 a 0.0665583,0.0665583 0 0 0 -0.0332,-0.12891 z"
         style="color:#000000;font-style:normal;font-variant:normal;font-weight:normal;font-stretch:normal;font-size:medium;line-height:normal;font-family:sans-serif;font-variant-ligatures:normal;font-variant-position:normal;font-variant-caps:normal;font-variant-numeric:normal;font-variant-alternates:normal;font-feature-settings:normal;text-indent:0;text-align:start;text-decoration:none;text-decoration-line:none;text-decoration-style:solid;text-decoration-color:#000000;letter-spacing:normal;word-spacing:normal;text-transform:none;writing-mode:lr-tb;direction:ltr;text-orientation:mixed;dominant-baseline:auto;baseline-shift:baseline;text-anchor:start;white-space:normal;shape-padding:0;clip-rule:nonzero;display:inline;overflow:visible;visibility:visible;opacity:1;isolation:auto;mix-blend-mode:normal;color-interpolation:sRGB;color-interpolation-filters:linearRGB;solid-color:#000000;solid-opacity:1;vector-effect:none;fill:#000000;fill-opacity:1;fill-rule:nonzero;stroke:none;stroke-width:0.13229167;stroke-linecap:round;stroke-linejoin:round;stroke-miterlimit:4;stroke-dasharray:none;stroke-dashoffset:0;stroke-opacity:1;color-rendering:auto;image-rendering:auto;shape-rendering:auto;text-rendering:auto;enable-background:accumulate" />
      <path
         inkscape:connector-curvature="0"
         id="path22953-5-3"
         d="m -196.51742,423.92975 a 0.06615245,0.06615245 0 0 0 -0.006,0.002 l -0.39649,0.12305 a 0.06641747,0.06641747 0 1 0 0.0391,0.12695 l 0.39648,-0.12305 a 0.06655346,0.06655346 0 0 0 -0.0332,-0.1289 z"
         style="color:#000000;font-style:normal;font-variant:normal;font-weight:normal;font-stretch:normal;font-size:medium;line-height:normal;font-family:sans-serif;font-variant-ligatures:normal;font-variant-position:normal;font-variant-caps:normal;font-variant-numeric:normal;font-variant-alternates:normal;font-feature-settings:normal;text-indent:0;text-align:start;text-decoration:none;text-decoration-line:none;text-decoration-style:solid;text-decoration-color:#000000;letter-spacing:normal;word-spacing:normal;text-transform:none;writing-mode:lr-tb;direction:ltr;text-orientation:mixed;dominant-baseline:auto;baseline-shift:baseline;text-anchor:start;white-space:normal;shape-padding:0;clip-rule:nonzero;display:inline;overflow:visible;visibility:visible;opacity:1;isolation:auto;mix-blend-mode:normal;color-interpolation:sRGB;color-interpolation-filters:linearRGB;solid-color:#000000;solid-opacity:1;vector-effect:none;fill:#000000;fill-opacity:1;fill-rule:nonzero;stroke:none;stroke-width:0.13229167;stroke-linecap:round;stroke-linejoin:round;stroke-miterlimit:4;stroke-dasharray:none;stroke-dashoffset:0;stroke-opacity:1;color-rendering:auto;image-rendering:auto;shape-rendering:auto;text-rendering:auto;enable-background:accumulate" />
      <path
         inkscape:connector-curvature="0"
         id="path22957-9-1"
         d="m -196.59945,424.16217 a 0.06615245,0.06615245 0 0 0 -0.0176,0.004 l -0.38086,0.1289 a 0.06615245,0.06615245 0 1 0 0.043,0.125 l 0.3789,-0.1289 a 0.06615245,0.06615245 0 0 0 -0.0234,-0.12891 z"
         style="color:#000000;font-style:normal;font-variant:normal;font-weight:normal;font-stretch:normal;font-size:medium;line-height:normal;font-family:sans-serif;font-variant-ligatures:normal;font-variant-position:normal;font-variant-caps:normal;font-variant-numeric:normal;font-variant-alternates:normal;font-feature-settings:normal;text-indent:0;text-align:start;text-decoration:none;text-decoration-line:none;text-decoration-style:solid;text-decoration-color:#000000;letter-spacing:normal;word-spacing:normal;text-transform:none;writing-mode:lr-tb;direction:ltr;text-orientation:mixed;dominant-baseline:auto;baseline-shift:baseline;text-anchor:start;white-space:normal;shape-padding:0;clip-rule:nonzero;display:inline;overflow:visible;visibility:visible;opacity:1;isolation:auto;mix-blend-mode:normal;color-interpolation:sRGB;color-interpolation-filters:linearRGB;solid-color:#000000;solid-opacity:1;vector-effect:none;fill:#000000;fill-opacity:1;fill-rule:nonzero;stroke:none;stroke-width:0.13229167;stroke-linecap:round;stroke-linejoin:round;stroke-miterlimit:4;stroke-dasharray:none;stroke-dashoffset:0;stroke-opacity:1;color-rendering:auto;image-rendering:auto;shape-rendering:auto;text-rendering:auto;enable-background:accumulate" />
      <path
         inkscape:connector-curvature="0"
         id="path22959-4-4"
         d="m -196.63461,424.39654 a 0.06615245,0.06615245 0 0 0 -0.0117,0.004 l -0.46094,0.14649 a 0.06615245,0.06615245 0 1 0 0.0391,0.125 l 0.46289,-0.14649 a 0.06615245,0.06615245 0 0 0 -0.0293,-0.12891 z"
         style="color:#000000;font-style:normal;font-variant:normal;font-weight:normal;font-stretch:normal;font-size:medium;line-height:normal;font-family:sans-serif;font-variant-ligatures:normal;font-variant-position:normal;font-variant-caps:normal;font-variant-numeric:normal;font-variant-alternates:normal;font-feature-settings:normal;text-indent:0;text-align:start;text-decoration:none;text-decoration-line:none;text-decoration-style:solid;text-decoration-color:#000000;letter-spacing:normal;word-spacing:normal;text-transform:none;writing-mode:lr-tb;direction:ltr;text-orientation:mixed;dominant-baseline:auto;baseline-shift:baseline;text-anchor:start;white-space:normal;shape-padding:0;clip-rule:nonzero;display:inline;overflow:visible;visibility:visible;opacity:1;isolation:auto;mix-blend-mode:normal;color-interpolation:sRGB;color-interpolation-filters:linearRGB;solid-color:#000000;solid-opacity:1;vector-effect:none;fill:#000000;fill-opacity:1;fill-rule:nonzero;stroke:none;stroke-width:0.13229167;stroke-linecap:round;stroke-linejoin:round;stroke-miterlimit:4;stroke-dasharray:none;stroke-dashoffset:0;stroke-opacity:1;color-rendering:auto;image-rendering:auto;shape-rendering:auto;text-rendering:auto;enable-background:accumulate" />
      <path
         inkscape:connector-curvature="0"
         id="path22961-9-9"
         d="m -196.71664,424.64264 a 0.06615245,0.06615245 0 0 0 -0.0156,0.004 l -0.36328,0.15235 a 0.06656191,0.06656191 0 1 0 0.0508,0.12305 l 0.36329,-0.15235 a 0.06615245,0.06615245 0 0 0 -0.0352,-0.12695 z"
         style="color:#000000;font-style:normal;font-variant:normal;font-weight:normal;font-stretch:normal;font-size:medium;line-height:normal;font-family:sans-serif;font-variant-ligatures:normal;font-variant-position:normal;font-variant-caps:normal;font-variant-numeric:normal;font-variant-alternates:normal;font-feature-settings:normal;text-indent:0;text-align:start;text-decoration:none;text-decoration-line:none;text-decoration-style:solid;text-decoration-color:#000000;letter-spacing:normal;word-spacing:normal;text-transform:none;writing-mode:lr-tb;direction:ltr;text-orientation:mixed;dominant-baseline:auto;baseline-shift:baseline;text-anchor:start;white-space:normal;shape-padding:0;clip-rule:nonzero;display:inline;overflow:visible;visibility:visible;opacity:1;isolation:auto;mix-blend-mode:normal;color-interpolation:sRGB;color-interpolation-filters:linearRGB;solid-color:#000000;solid-opacity:1;vector-effect:none;fill:#000000;fill-opacity:1;fill-rule:nonzero;stroke:none;stroke-width:0.13229167;stroke-linecap:round;stroke-linejoin:round;stroke-miterlimit:4;stroke-dasharray:none;stroke-dashoffset:0;stroke-opacity:1;color-rendering:auto;image-rendering:auto;shape-rendering:auto;text-rendering:auto;enable-background:accumulate" />
      <path
         inkscape:connector-curvature="0"
         id="path22963-0-2"
         d="m -196.72055,424.87506 a 0.06615245,0.06615245 0 0 0 -0.041,0.0156 l -0.2461,0.20508 a 0.06652471,0.06652471 0 1 0 0.0859,0.10157 l 0.24414,-0.20508 a 0.06615245,0.06615245 0 0 0 -0.043,-0.11719 z"
         style="color:#000000;font-style:normal;font-variant:normal;font-weight:normal;font-stretch:normal;font-size:medium;line-height:normal;font-family:sans-serif;font-variant-ligatures:normal;font-variant-position:normal;font-variant-caps:normal;font-variant-numeric:normal;font-variant-alternates:normal;font-feature-settings:normal;text-indent:0;text-align:start;text-decoration:none;text-decoration-line:none;text-decoration-style:solid;text-decoration-color:#000000;letter-spacing:normal;word-spacing:normal;text-transform:none;writing-mode:lr-tb;direction:ltr;text-orientation:mixed;dominant-baseline:auto;baseline-shift:baseline;text-anchor:start;white-space:normal;shape-padding:0;clip-rule:nonzero;display:inline;overflow:visible;visibility:visible;opacity:1;isolation:auto;mix-blend-mode:normal;color-interpolation:sRGB;color-interpolation-filters:linearRGB;solid-color:#000000;solid-opacity:1;vector-effect:none;fill:#000000;fill-opacity:1;fill-rule:nonzero;stroke:none;stroke-width:0.13229167;stroke-linecap:round;stroke-linejoin:round;stroke-miterlimit:4;stroke-dasharray:none;stroke-dashoffset:0;stroke-opacity:1;color-rendering:auto;image-rendering:auto;shape-rendering:auto;text-rendering:auto;enable-background:accumulate" />
      <path
         inkscape:connector-curvature="0"
         id="path22965-9-0"
         d="m -195.07016,424.25006 c -0.11968,-0.001 -0.21246,0.0643 -0.27929,0.14062 -0.0668,0.0763 -0.11506,0.17069 -0.11914,0.27735 -0.004,0.10612 0.0352,0.2015 0.0957,0.2832 0.0605,0.0817 0.15058,0.15731 0.27344,0.16016 0.12727,0.003 0.22464,-0.0697 0.29297,-0.15235 0.0683,-0.0827 0.11568,-0.18251 0.11523,-0.29492 -5.3e-4,-0.10553 -0.0456,-0.19639 -0.10938,-0.27148 -0.0638,-0.0751 -0.15265,-0.14164 -0.26953,-0.14258 z m -0.002,0.26562 c 0.008,7e-5 0.0415,0.0129 0.0703,0.0469 0.0289,0.034 0.0468,0.0821 0.0469,0.10156 1e-4,0.0263 -0.0211,0.0863 -0.0547,0.12696 -0.0336,0.0406 -0.0726,0.055 -0.084,0.0547 -0.007,-1.5e-4 -0.0382,-0.0126 -0.0664,-0.0508 -0.0282,-0.0381 -0.0438,-0.0938 -0.043,-0.11719 7.9e-4,-0.0239 0.0192,-0.0753 0.0508,-0.11132 0.0315,-0.036 0.0691,-0.0509 0.0801,-0.0508 z"
         style="color:#000000;font-style:normal;font-variant:normal;font-weight:normal;font-stretch:normal;font-size:medium;line-height:normal;font-family:sans-serif;font-variant-ligatures:normal;font-variant-position:normal;font-variant-caps:normal;font-variant-numeric:normal;font-variant-alternates:normal;font-feature-settings:normal;text-indent:0;text-align:start;text-decoration:none;text-decoration-line:none;text-decoration-style:solid;text-decoration-color:#000000;letter-spacing:normal;word-spacing:normal;text-transform:none;writing-mode:lr-tb;direction:ltr;text-orientation:mixed;dominant-baseline:auto;baseline-shift:baseline;text-anchor:start;white-space:normal;shape-padding:0;clip-rule:nonzero;display:inline;overflow:visible;visibility:visible;opacity:1;isolation:auto;mix-blend-mode:normal;color-interpolation:sRGB;color-interpolation-filters:linearRGB;solid-color:#000000;solid-opacity:1;vector-effect:none;fill:#000000;fill-opacity:1;fill-rule:nonzero;stroke:none;stroke-width:0.26458332px;stroke-linecap:butt;stroke-linejoin:miter;stroke-miterlimit:4;stroke-dasharray:none;stroke-dashoffset:0;stroke-opacity:1;color-rendering:auto;image-rendering:auto;shape-rendering:auto;text-rendering:auto;enable-background:accumulate" />
      <path
         inkscape:connector-curvature="0"
         id="path22967-1-6"
         d="m -192.97055,424.25006 c -0.11969,-0.001 -0.21246,0.0643 -0.27929,0.14062 -0.0668,0.0763 -0.11311,0.17069 -0.11719,0.27735 -0.004,0.10612 0.0333,0.2015 0.0937,0.2832 0.0605,0.0817 0.15058,0.15731 0.27344,0.16016 0.12727,0.003 0.22659,-0.0697 0.29492,-0.15235 0.0683,-0.0827 0.11373,-0.18251 0.11328,-0.29492 -5.3e-4,-0.10553 -0.0436,-0.19639 -0.10742,-0.27148 -0.0638,-0.0751 -0.15461,-0.14164 -0.27149,-0.14258 z m -0.002,0.26562 c 0.008,7e-5 0.0414,0.0129 0.0703,0.0469 0.0289,0.034 0.0468,0.0821 0.0469,0.10156 10e-5,0.0263 -0.0211,0.0863 -0.0547,0.12696 -0.0336,0.0406 -0.0706,0.055 -0.082,0.0547 -0.007,-1.5e-4 -0.0401,-0.0126 -0.0684,-0.0508 -0.0282,-0.0381 -0.0439,-0.0938 -0.043,-0.11719 7.9e-4,-0.0239 0.0212,-0.0753 0.0527,-0.11132 0.0315,-0.036 0.0671,-0.0509 0.0781,-0.0508 z"
         style="color:#000000;font-style:normal;font-variant:normal;font-weight:normal;font-stretch:normal;font-size:medium;line-height:normal;font-family:sans-serif;font-variant-ligatures:normal;font-variant-position:normal;font-variant-caps:normal;font-variant-numeric:normal;font-variant-alternates:normal;font-feature-settings:normal;text-indent:0;text-align:start;text-decoration:none;text-decoration-line:none;text-decoration-style:solid;text-decoration-color:#000000;letter-spacing:normal;word-spacing:normal;text-transform:none;writing-mode:lr-tb;direction:ltr;text-orientation:mixed;dominant-baseline:auto;baseline-shift:baseline;text-anchor:start;white-space:normal;shape-padding:0;clip-rule:nonzero;display:inline;overflow:visible;visibility:visible;opacity:1;isolation:auto;mix-blend-mode:normal;color-interpolation:sRGB;color-interpolation-filters:linearRGB;solid-color:#000000;solid-opacity:1;vector-effect:none;fill:#000000;fill-opacity:1;fill-rule:nonzero;stroke:none;stroke-width:0.26458332px;stroke-linecap:butt;stroke-linejoin:miter;stroke-miterlimit:4;stroke-dasharray:none;stroke-dashoffset:0;stroke-opacity:1;color-rendering:auto;image-rendering:auto;shape-rendering:auto;text-rendering:auto;enable-background:accumulate" />
      <path
         sodipodi:nodetypes="ccccccccccccccccccscsccc"
         inkscape:connector-curvature="0"
         id="path22969-7-89"
         d="m -193.98422,425.34576 c -0.25303,0.0153 -0.38707,0.0441 -0.44141,0.30469 -0.0137,0.0712 -0.0113,0.14262 0.008,0.20899 0.0233,0.0809 0.0673,0.15942 0.1289,0.22656 0.0616,0.0671 0.1468,0.12557 0.25586,0.13086 0.10782,0.006 0.19648,-0.0445 0.26172,-0.10352 0.0652,-0.059 0.11197,-0.12898 0.14453,-0.19922 0.0277,-0.0597 0.0479,-0.13058 0.0508,-0.20703 0.003,-0.0764 -0.0116,-0.16798 -0.082,-0.23828 -0.0901,-0.09 -0.21082,-0.12246 -0.32617,-0.12305 z m -0.002,0.26563 c 0.0635,3.1e-4 0.11833,0.0227 0.14062,0.0449 -7.9e-4,-6.9e-4 0.007,0.01 0.006,0.041 -0.001,0.0314 -0.0136,0.0759 -0.0273,0.10546 -0.0181,0.0391 -0.0497,0.0841 -0.082,0.11329 -0.0323,0.0292 -0.0578,0.0378 -0.0703,0.0371 h -0.002 c -0.0148,-7.2e-4 -0.0419,-0.0138 -0.0723,-0.0469 -0.0304,-0.0331 -0.0573,-0.0829 -0.0684,-0.12109 -0.006,-0.022 -0.009,-0.0569 -0.004,-0.084 0.005,-0.0271 0.0169,-0.0409 0.0195,-0.043 0.0313,-0.0245 0.0966,-0.0472 0.16016,-0.0469 z"
         style="color:#000000;font-style:normal;font-variant:normal;font-weight:normal;font-stretch:normal;font-size:medium;line-height:normal;font-family:sans-serif;font-variant-ligatures:normal;font-variant-position:normal;font-variant-caps:normal;font-variant-numeric:normal;font-variant-alternates:normal;font-feature-settings:normal;text-indent:0;text-align:start;text-decoration:none;text-decoration-line:none;text-decoration-style:solid;text-decoration-color:#000000;letter-spacing:normal;word-spacing:normal;text-transform:none;writing-mode:lr-tb;direction:ltr;text-orientation:mixed;dominant-baseline:auto;baseline-shift:baseline;text-anchor:start;white-space:normal;shape-padding:0;clip-rule:nonzero;display:inline;overflow:visible;visibility:visible;opacity:1;isolation:auto;mix-blend-mode:normal;color-interpolation:sRGB;color-interpolation-filters:linearRGB;solid-color:#000000;solid-opacity:1;vector-effect:none;fill:#000000;fill-opacity:1;fill-rule:nonzero;stroke:none;stroke-width:0.26458332px;stroke-linecap:butt;stroke-linejoin:miter;stroke-miterlimit:4;stroke-dasharray:none;stroke-dashoffset:0;stroke-opacity:1;color-rendering:auto;image-rendering:auto;shape-rendering:auto;text-rendering:auto;enable-background:accumulate" />
      <path
         inkscape:connector-curvature="0"
         id="path22971-7-2"
         d="m -193.6893,425.75397 -0.0976,0.24609 c 0,0 0.0651,0.0259 0.13672,0.0645 0.0716,0.0386 0.14734,0.10185 0.15429,0.11328 0.0329,0.0541 0.0418,0.14874 0.0215,0.19922 -0.0325,0.0805 -0.13384,0.16924 -0.21094,0.1836 -8e-4,1.5e-4 -0.0893,-0.0151 -0.1582,-0.0469 -0.0689,-0.0318 -0.125,-0.0664 -0.125,-0.0664 a 0.13230489,0.13230489 0 0 0 -0.15235,0.008 c 0,0 -0.0433,0.0341 -0.0977,0.0664 -0.0543,0.0323 -0.12683,0.0471 -0.11328,0.0488 -0.061,-0.008 -0.15658,-0.0871 -0.1836,-0.15625 -0.0191,-0.049 -0.006,-0.14686 0.0312,-0.20312 0.003,-0.005 0.0707,-0.0598 0.13477,-0.0918 0.064,-0.0319 0.12109,-0.0527 0.12109,-0.0527 l -0.0898,-0.24805 c 0,0 -0.0688,0.0247 -0.14844,0.0645 -0.0796,0.0397 -0.1728,0.0834 -0.23828,0.1836 -0.0827,0.12653 -0.11691,0.28902 -0.0566,0.44336 0.0642,0.1642 0.20905,0.29983 0.39648,0.32421 0.12639,0.0165 0.20886,-0.041 0.28125,-0.084 0.0302,-0.018 0.0312,-0.022 0.0527,-0.0371 0.0277,0.0157 0.0334,0.0213 0.0762,0.041 0.0869,0.0401 0.18832,0.0906 0.31836,0.0664 0.1893,-0.0352 0.33935,-0.17297 0.4082,-0.34375 0.0595,-0.14752 0.0352,-0.30912 -0.043,-0.4375 -0.0662,-0.10888 -0.16695,-0.1602 -0.2539,-0.20703 -0.087,-0.0468 -0.16407,-0.0781 -0.16407,-0.0781 z"
         style="color:#000000;font-style:normal;font-variant:normal;font-weight:normal;font-stretch:normal;font-size:medium;line-height:normal;font-family:sans-serif;font-variant-ligatures:normal;font-variant-position:normal;font-variant-caps:normal;font-variant-numeric:normal;font-variant-alternates:normal;font-feature-settings:normal;text-indent:0;text-align:start;text-decoration:none;text-decoration-line:none;text-decoration-style:solid;text-decoration-color:#000000;letter-spacing:normal;word-spacing:normal;text-transform:none;writing-mode:lr-tb;direction:ltr;text-orientation:mixed;dominant-baseline:auto;baseline-shift:baseline;text-anchor:start;white-space:normal;shape-padding:0;clip-rule:nonzero;display:inline;overflow:visible;visibility:visible;opacity:1;isolation:auto;mix-blend-mode:normal;color-interpolation:sRGB;color-interpolation-filters:linearRGB;solid-color:#000000;solid-opacity:1;vector-effect:none;fill:#000000;fill-opacity:1;fill-rule:nonzero;stroke:none;stroke-width:0.26458332px;stroke-linecap:butt;stroke-linejoin:round;stroke-miterlimit:4;stroke-dasharray:none;stroke-dashoffset:0;stroke-opacity:1;color-rendering:auto;image-rendering:auto;shape-rendering:auto;text-rendering:auto;enable-background:accumulate" />
      <path
         inkscape:connector-curvature="0"
         id="path22983-1-6"
         d="m -193.02719,422.14264 c -0.26445,0.0344 -0.48047,0.084 -0.48047,0.084 l 0.0605,0.25782 c 0,0 0.20288,-0.0475 0.45313,-0.0801 0.25024,-0.0326 0.55155,-0.0421 0.70117,0.004 0.70913,0.21795 1.17974,0.7978 1.58789,1.46289 0.28427,0.46325 0.60937,1.00029 0.48242,1.44141 -0.094,0.32671 -0.48849,0.61361 -0.84766,0.70117 -0.0403,0.01 -0.18106,-0.009 -0.29492,-0.0449 -0.11386,-0.0363 -0.20508,-0.0781 -0.20508,-0.0781 l -0.10937,0.24024 c 0,0 0.10344,0.0481 0.23437,0.0898 0.13094,0.0417 0.28487,0.0885 0.43946,0.0508 0.43897,-0.10701 0.90393,-0.42395 1.03711,-0.88671 0.17243,-0.59918 -0.22784,-1.19293 -0.50977,-1.65235 -0.41954,-0.68366 -0.9328,-1.33117 -1.73633,-1.57812 -0.23893,-0.0735 -0.54804,-0.0462 -0.8125,-0.0117 z"
         style="color:#000000;font-style:normal;font-variant:normal;font-weight:normal;font-stretch:normal;font-size:medium;line-height:normal;font-family:sans-serif;font-variant-ligatures:normal;font-variant-position:normal;font-variant-caps:normal;font-variant-numeric:normal;font-variant-alternates:normal;font-feature-settings:normal;text-indent:0;text-align:start;text-decoration:none;text-decoration-line:none;text-decoration-style:solid;text-decoration-color:#000000;letter-spacing:normal;word-spacing:normal;text-transform:none;writing-mode:lr-tb;direction:ltr;text-orientation:mixed;dominant-baseline:auto;baseline-shift:baseline;text-anchor:start;white-space:normal;shape-padding:0;clip-rule:nonzero;display:inline;overflow:visible;visibility:visible;opacity:1;isolation:auto;mix-blend-mode:normal;color-interpolation:sRGB;color-interpolation-filters:linearRGB;solid-color:#000000;solid-opacity:1;vector-effect:none;fill:#000000;fill-opacity:1;fill-rule:nonzero;stroke:none;stroke-width:0.26458332px;stroke-linecap:butt;stroke-linejoin:miter;stroke-miterlimit:4;stroke-dasharray:none;stroke-dashoffset:0;stroke-opacity:1;color-rendering:auto;image-rendering:auto;shape-rendering:auto;text-rendering:auto;enable-background:accumulate" />
      <path
         inkscape:connector-curvature="0"
         id="path22985-5-6"
         d="m -192.28891,423.02545 c -0.0407,0.004 -0.0762,0.0156 -0.0762,0.0156 l 0.0918,0.24804 c 0,0 -0.006,0.002 0.0117,0 0.0179,-0.002 0.0511,-0.004 0.0996,0.004 0.0967,0.0148 0.25824,0.0653 0.48828,0.21484 0.23521,0.15657 0.47492,0.39486 0.6289,0.67969 0.15338,0.28371 0.22353,0.6102 0.13477,0.96875 -0.018,0.0598 -0.05,0.0952 -0.10742,0.125 -0.0584,0.0303 -0.14242,0.0482 -0.22656,0.0547 -0.1683,0.013 -0.33008,-0.0176 -0.33008,-0.0176 l -0.0508,0.25976 c 0,0 0.18976,0.0379 0.40234,0.0215 0.10629,-0.008 0.22042,-0.0292 0.32617,-0.084 0.10575,-0.0548 0.20316,-0.1515 0.24219,-0.2871 v -0.002 -0.002 c 0.10779,-0.42962 0.0207,-0.83305 -0.1582,-1.16406 -0.17896,-0.33102 -0.44654,-0.59484 -0.71485,-0.77344 -0.2565,-0.16718 -0.45503,-0.23439 -0.5957,-0.25586 -0.0703,-0.0107 -0.12529,-0.0102 -0.16602,-0.006 z"
         style="color:#000000;font-style:normal;font-variant:normal;font-weight:normal;font-stretch:normal;font-size:medium;line-height:normal;font-family:sans-serif;font-variant-ligatures:normal;font-variant-position:normal;font-variant-caps:normal;font-variant-numeric:normal;font-variant-alternates:normal;font-feature-settings:normal;text-indent:0;text-align:start;text-decoration:none;text-decoration-line:none;text-decoration-style:solid;text-decoration-color:#000000;letter-spacing:normal;word-spacing:normal;text-transform:none;writing-mode:lr-tb;direction:ltr;text-orientation:mixed;dominant-baseline:auto;baseline-shift:baseline;text-anchor:start;white-space:normal;shape-padding:0;clip-rule:nonzero;display:inline;overflow:visible;visibility:visible;opacity:1;isolation:auto;mix-blend-mode:normal;color-interpolation:sRGB;color-interpolation-filters:linearRGB;solid-color:#000000;solid-opacity:1;vector-effect:none;fill:#000000;fill-opacity:1;fill-rule:nonzero;stroke:none;stroke-width:0.26458332px;stroke-linecap:butt;stroke-linejoin:miter;stroke-miterlimit:4;stroke-dasharray:none;stroke-dashoffset:0;stroke-opacity:1;color-rendering:auto;image-rendering:auto;shape-rendering:auto;text-rendering:auto;enable-background:accumulate" />
      <path
         inkscape:connector-curvature="0"
         id="path22987-9-4"
         d="m -191.64828,423.70123 a 0.06615245,0.06615245 0 0 0 -0.01,0.12891 l 0.21485,0.0762 a 0.06641311,0.06641311 0 1 0 0.0449,-0.125 l -0.2168,-0.0762 a 0.06615245,0.06615245 0 0 0 -0.0332,-0.004 z"
         style="color:#000000;font-style:normal;font-variant:normal;font-weight:normal;font-stretch:normal;font-size:medium;line-height:normal;font-family:sans-serif;font-variant-ligatures:normal;font-variant-position:normal;font-variant-caps:normal;font-variant-numeric:normal;font-variant-alternates:normal;font-feature-settings:normal;text-indent:0;text-align:start;text-decoration:none;text-decoration-line:none;text-decoration-style:solid;text-decoration-color:#000000;letter-spacing:normal;word-spacing:normal;text-transform:none;writing-mode:lr-tb;direction:ltr;text-orientation:mixed;dominant-baseline:auto;baseline-shift:baseline;text-anchor:start;white-space:normal;shape-padding:0;clip-rule:nonzero;display:inline;overflow:visible;visibility:visible;opacity:1;isolation:auto;mix-blend-mode:normal;color-interpolation:sRGB;color-interpolation-filters:linearRGB;solid-color:#000000;solid-opacity:1;vector-effect:none;fill:#000000;fill-opacity:1;fill-rule:nonzero;stroke:none;stroke-width:0.13229167;stroke-linecap:round;stroke-linejoin:round;stroke-miterlimit:4;stroke-dasharray:none;stroke-dashoffset:0;stroke-opacity:1;color-rendering:auto;image-rendering:auto;shape-rendering:auto;text-rendering:auto;enable-background:accumulate" />
      <path
         inkscape:connector-curvature="0"
         id="path22989-7-9"
         d="m -191.58383,423.92779 a 0.06615467,0.06615467 0 0 0 -0.0195,0.13086 l 0.39649,0.12305 a 0.06641747,0.06641747 0 1 0 0.0391,-0.12695 l -0.39649,-0.12305 a 0.06615245,0.06615245 0 0 0 -0.0195,-0.004 z"
         style="color:#000000;font-style:normal;font-variant:normal;font-weight:normal;font-stretch:normal;font-size:medium;line-height:normal;font-family:sans-serif;font-variant-ligatures:normal;font-variant-position:normal;font-variant-caps:normal;font-variant-numeric:normal;font-variant-alternates:normal;font-feature-settings:normal;text-indent:0;text-align:start;text-decoration:none;text-decoration-line:none;text-decoration-style:solid;text-decoration-color:#000000;letter-spacing:normal;word-spacing:normal;text-transform:none;writing-mode:lr-tb;direction:ltr;text-orientation:mixed;dominant-baseline:auto;baseline-shift:baseline;text-anchor:start;white-space:normal;shape-padding:0;clip-rule:nonzero;display:inline;overflow:visible;visibility:visible;opacity:1;isolation:auto;mix-blend-mode:normal;color-interpolation:sRGB;color-interpolation-filters:linearRGB;solid-color:#000000;solid-opacity:1;vector-effect:none;fill:#000000;fill-opacity:1;fill-rule:nonzero;stroke:none;stroke-width:0.13229167;stroke-linecap:round;stroke-linejoin:round;stroke-miterlimit:4;stroke-dasharray:none;stroke-dashoffset:0;stroke-opacity:1;color-rendering:auto;image-rendering:auto;shape-rendering:auto;text-rendering:auto;enable-background:accumulate" />
      <path
         inkscape:connector-curvature="0"
         id="path22991-7-5"
         d="m -191.49594,424.16217 a 0.06615245,0.06615245 0 0 0 -0.0156,0.12891 l 0.3789,0.1289 a 0.06615245,0.06615245 0 1 0 0.043,-0.125 l -0.38086,-0.1289 a 0.06615245,0.06615245 0 0 0 -0.0254,-0.004 z"
         style="color:#000000;font-style:normal;font-variant:normal;font-weight:normal;font-stretch:normal;font-size:medium;line-height:normal;font-family:sans-serif;font-variant-ligatures:normal;font-variant-position:normal;font-variant-caps:normal;font-variant-numeric:normal;font-variant-alternates:normal;font-feature-settings:normal;text-indent:0;text-align:start;text-decoration:none;text-decoration-line:none;text-decoration-style:solid;text-decoration-color:#000000;letter-spacing:normal;word-spacing:normal;text-transform:none;writing-mode:lr-tb;direction:ltr;text-orientation:mixed;dominant-baseline:auto;baseline-shift:baseline;text-anchor:start;white-space:normal;shape-padding:0;clip-rule:nonzero;display:inline;overflow:visible;visibility:visible;opacity:1;isolation:auto;mix-blend-mode:normal;color-interpolation:sRGB;color-interpolation-filters:linearRGB;solid-color:#000000;solid-opacity:1;vector-effect:none;fill:#000000;fill-opacity:1;fill-rule:nonzero;stroke:none;stroke-width:0.13229167;stroke-linecap:round;stroke-linejoin:round;stroke-miterlimit:4;stroke-dasharray:none;stroke-dashoffset:0;stroke-opacity:1;color-rendering:auto;image-rendering:auto;shape-rendering:auto;text-rendering:auto;enable-background:accumulate" />
      <path
         inkscape:connector-curvature="0"
         id="path22993-6-04"
         d="m -191.47445,424.39654 a 0.06615245,0.06615245 0 0 0 -0.008,0.12891 l 0.4629,0.14649 a 0.06615245,0.06615245 0 1 0 0.0391,-0.125 l -0.46094,-0.14649 a 0.06615245,0.06615245 0 0 0 -0.0332,-0.004 z"
         style="color:#000000;font-style:normal;font-variant:normal;font-weight:normal;font-stretch:normal;font-size:medium;line-height:normal;font-family:sans-serif;font-variant-ligatures:normal;font-variant-position:normal;font-variant-caps:normal;font-variant-numeric:normal;font-variant-alternates:normal;font-feature-settings:normal;text-indent:0;text-align:start;text-decoration:none;text-decoration-line:none;text-decoration-style:solid;text-decoration-color:#000000;letter-spacing:normal;word-spacing:normal;text-transform:none;writing-mode:lr-tb;direction:ltr;text-orientation:mixed;dominant-baseline:auto;baseline-shift:baseline;text-anchor:start;white-space:normal;shape-padding:0;clip-rule:nonzero;display:inline;overflow:visible;visibility:visible;opacity:1;isolation:auto;mix-blend-mode:normal;color-interpolation:sRGB;color-interpolation-filters:linearRGB;solid-color:#000000;solid-opacity:1;vector-effect:none;fill:#000000;fill-opacity:1;fill-rule:nonzero;stroke:none;stroke-width:0.13229167;stroke-linecap:round;stroke-linejoin:round;stroke-miterlimit:4;stroke-dasharray:none;stroke-dashoffset:0;stroke-opacity:1;color-rendering:auto;image-rendering:auto;shape-rendering:auto;text-rendering:auto;enable-background:accumulate" />
      <path
         inkscape:connector-curvature="0"
         id="path22995-7-8"
         d="m -191.39242,424.64264 a 0.06615245,0.06615245 0 0 0 -0.0137,0.12695 l 0.36328,0.15235 a 0.06656191,0.06656191 0 1 0 0.0508,-0.12305 l -0.36133,-0.15235 a 0.06615245,0.06615245 0 0 0 -0.0391,-0.004 z"
         style="color:#000000;font-style:normal;font-variant:normal;font-weight:normal;font-stretch:normal;font-size:medium;line-height:normal;font-family:sans-serif;font-variant-ligatures:normal;font-variant-position:normal;font-variant-caps:normal;font-variant-numeric:normal;font-variant-alternates:normal;font-feature-settings:normal;text-indent:0;text-align:start;text-decoration:none;text-decoration-line:none;text-decoration-style:solid;text-decoration-color:#000000;letter-spacing:normal;word-spacing:normal;text-transform:none;writing-mode:lr-tb;direction:ltr;text-orientation:mixed;dominant-baseline:auto;baseline-shift:baseline;text-anchor:start;white-space:normal;shape-padding:0;clip-rule:nonzero;display:inline;overflow:visible;visibility:visible;opacity:1;isolation:auto;mix-blend-mode:normal;color-interpolation:sRGB;color-interpolation-filters:linearRGB;solid-color:#000000;solid-opacity:1;vector-effect:none;fill:#000000;fill-opacity:1;fill-rule:nonzero;stroke:none;stroke-width:0.13229167;stroke-linecap:round;stroke-linejoin:round;stroke-miterlimit:4;stroke-dasharray:none;stroke-dashoffset:0;stroke-opacity:1;color-rendering:auto;image-rendering:auto;shape-rendering:auto;text-rendering:auto;enable-background:accumulate" />
      <path
         inkscape:connector-curvature="0"
         id="path22997-3-7"
         d="m -191.37484,424.87506 a 0.06615245,0.06615245 0 0 0 -0.0352,0.11719 l 0.24609,0.20508 a 0.06615245,0.06615245 0 1 0 0.084,-0.10157 l -0.2461,-0.20508 a 0.06615245,0.06615245 0 0 0 -0.0488,-0.0156 z"
         style="color:#000000;font-style:normal;font-variant:normal;font-weight:normal;font-stretch:normal;font-size:medium;line-height:normal;font-family:sans-serif;font-variant-ligatures:normal;font-variant-position:normal;font-variant-caps:normal;font-variant-numeric:normal;font-variant-alternates:normal;font-feature-settings:normal;text-indent:0;text-align:start;text-decoration:none;text-decoration-line:none;text-decoration-style:solid;text-decoration-color:#000000;letter-spacing:normal;word-spacing:normal;text-transform:none;writing-mode:lr-tb;direction:ltr;text-orientation:mixed;dominant-baseline:auto;baseline-shift:baseline;text-anchor:start;white-space:normal;shape-padding:0;clip-rule:nonzero;display:inline;overflow:visible;visibility:visible;opacity:1;isolation:auto;mix-blend-mode:normal;color-interpolation:sRGB;color-interpolation-filters:linearRGB;solid-color:#000000;solid-opacity:1;vector-effect:none;fill:#000000;fill-opacity:1;fill-rule:nonzero;stroke:none;stroke-width:0.13229167;stroke-linecap:round;stroke-linejoin:round;stroke-miterlimit:4;stroke-dasharray:none;stroke-dashoffset:0;stroke-opacity:1;color-rendering:auto;image-rendering:auto;shape-rendering:auto;text-rendering:auto;enable-background:accumulate" />
      <path
         sodipodi:nodetypes="aaaaa"
         inkscape:connector-curvature="0"
         id="path23001-6-1"
         d="m -195.59679,425.79005 c 0.0565,0.007 0.11095,0.0778 0.10523,0.13447 -0.007,0.0688 -0.0904,0.14968 -0.15785,0.13447 -0.0604,-0.0136 -0.0911,-0.10948 -0.076,-0.16955 0.0132,-0.0525 0.0749,-0.10612 0.12862,-0.0994 z"
         style="fill:#000000;stroke:none;stroke-width:0.26458332px;stroke-linecap:butt;stroke-linejoin:miter;stroke-opacity:1" />
      <path
         style="fill:#000000;stroke:none;stroke-width:0.26458332px;stroke-linecap:butt;stroke-linejoin:miter;stroke-opacity:1"
         d="m -195.13979,426.25321 c 0.0607,-0.007 0.11913,-0.0778 0.11299,-0.13447 -0.008,-0.0688 -0.0971,-0.14968 -0.16948,-0.13447 -0.0649,0.0136 -0.0978,0.10948 -0.0816,0.16955 0.0142,0.0525 0.0804,0.10612 0.13809,0.0994 z"
         id="path23003-5-72"
         inkscape:connector-curvature="0"
         sodipodi:nodetypes="aaaaa" />
      <path
         sodipodi:nodetypes="aaaaa"
         inkscape:connector-curvature="0"
         id="path23005-6-7"
         d="m -195.34149,426.73847 c 0.0607,-0.007 0.11913,-0.0778 0.11299,-0.13447 -0.008,-0.0688 -0.0971,-0.14968 -0.16948,-0.13447 -0.0649,0.0136 -0.0978,0.10948 -0.0816,0.16955 0.0142,0.0525 0.0804,0.10612 0.13809,0.0994 z"
         style="fill:#000000;stroke:none;stroke-width:0.26458332px;stroke-linecap:butt;stroke-linejoin:miter;stroke-opacity:1" />
      <path
         style="fill:#000000;stroke:none;stroke-width:0.26458332px;stroke-linecap:butt;stroke-linejoin:miter;stroke-opacity:1"
         d="m -192.40546,425.79005 c -0.0565,0.007 -0.11095,0.0778 -0.10523,0.13447 0.007,0.0688 0.0904,0.14968 0.15785,0.13447 0.0604,-0.0136 0.0911,-0.10948 0.076,-0.16955 -0.0132,-0.0525 -0.0749,-0.10612 -0.12862,-0.0994 z"
         id="path23007-3-2"
         inkscape:connector-curvature="0"
         sodipodi:nodetypes="aaaaa" />
      <path
         sodipodi:nodetypes="aaaaa"
         inkscape:connector-curvature="0"
         id="path23009-9-2"
         d="m -192.86246,426.25321 c -0.0607,-0.007 -0.11913,-0.0778 -0.11299,-0.13447 0.008,-0.0688 0.0971,-0.14968 0.16948,-0.13447 0.0649,0.0136 0.0978,0.10948 0.0816,0.16955 -0.0142,0.0525 -0.0804,0.10612 -0.13809,0.0994 z"
         style="fill:#000000;stroke:none;stroke-width:0.26458332px;stroke-linecap:butt;stroke-linejoin:miter;stroke-opacity:1" />
      <path
         style="fill:#000000;stroke:none;stroke-width:0.26458332px;stroke-linecap:butt;stroke-linejoin:miter;stroke-opacity:1"
         d="m -192.66076,426.73847 c -0.0607,-0.007 -0.11913,-0.0778 -0.11299,-0.13447 0.008,-0.0688 0.0971,-0.14968 0.16948,-0.13447 0.0649,0.0136 0.0978,0.10948 0.0816,0.16955 -0.0142,0.0525 -0.0804,0.10612 -0.13809,0.0994 z"
         id="path23011-4-6"
         inkscape:connector-curvature="0"
         sodipodi:nodetypes="aaaaa" />
    </g>
  </g>
</svg>
