<?xml version="1.0" encoding="UTF-8"?>
<!DOCTYPE svg PUBLIC "-//W3C//DTD SVG 1.1//EN" "http://www.w3.org/Graphics/SVG/1.1/DTD/svg11.dtd">
<!-- Creator: CorelDRAW -->
<svg xmlns="http://www.w3.org/2000/svg" xml:space="preserve" width="850px" height="850px" version="1.1" style="shape-rendering:geometricPrecision; text-rendering:geometricPrecision; image-rendering:optimizeQuality; fill-rule:evenodd; clip-rule:evenodd"
viewBox="0 0 850 850"
 xmlns:xlink="http://www.w3.org/1999/xlink">
 <defs>
  <style type="text/css">
   <![CDATA[
    .fil1 {fill:#FEFEFE}
    .fil0 {fill:url(#id0)}
   ]]>
  </style>
  <linearGradient id="id0" gradientUnits="userSpaceOnUse" x1="425" y1="850" x2="425" y2="0">
   <stop offset="0" style="stop-opacity:1; stop-color:#1AA8DC"/>
   <stop offset="0.490196" style="stop-opacity:1; stop-color:#AE3B89"/>
   <stop offset="1" style="stop-opacity:1; stop-color:#F26270"/>
  </linearGradient>
 </defs>
 <g id="Layer_x0020_1">
  <metadata id="CorelCorpID_0Corel-Layer"/>
  <circle class="fil0" cx="425" cy="425" r="425"/>
  <path class="fil1" d="M279 644c-9,0 -17,-2 -24,-6 -13,-9 -19,-26 -19,-51 0,-105 85,-189 189,-189 104,0 189,84 189,189 0,25 -6,42 -20,51 -24,16 -64,-2 -103,-19 -24,-11 -49,-22 -66,-22 -16,0 -42,11 -66,22 -28,13 -57,25 -80,25z"/>
  <path class="fil1" d="M425 367c-33,0 -60,-36 -60,-80 0,-45 27,-81 60,-81 33,0 60,36 60,81 0,44 -27,80 -60,80z"/>
  <path class="fil1" d="M589 430c-14,0 -27,-5 -36,-14 -12,-12 -16,-28 -13,-48 3,-18 13,-37 28,-52 31,-31 76,-38 99,-14 11,11 16,28 13,48 -3,18 -13,36 -27,51 -15,15 -34,25 -52,28 -4,1 -8,1 -12,1z"/>
  <path class="fil1" d="M260 430c-20,0 -44,-10 -62,-29 -32,-31 -38,-76 -15,-99 0,0 0,0 0,0 24,-23 67,-17 99,15 31,31 38,76 15,99 -10,9 -22,14 -37,14z"/>
 </g>
</svg>
